<svg xmlns="http://www.w3.org/2000/svg" viewBox="0 0 470.57 380.97"><defs><style>.cls-1{fill:#fff;}</style></defs><title>Asset 1</title><g id="Layer_2" data-name="Layer 2"><g id="Layer_1-2" data-name="Layer 1"><path class="cls-1" d="M133.49,350.81q0,6.48-3.86,10.07t-10.77,3.59H97.67V316.85H118.1q7,0,10.87,3.45t3.9,9.8a11.13,11.13,0,0,1-1.59,5.83,10.26,10.26,0,0,1-4.41,4,10.77,10.77,0,0,1,4.93,4.21A12.42,12.42,0,0,1,133.49,350.81Zm-24.71-15.36h7.77a6.84,6.84,0,0,0,4.73-1.48,3.67,3.67,0,0,0,1.62-3.32,4,4,0,0,0-1.62-3.55,6.66,6.66,0,0,0-4.73-1.52h-7.77Zm14.81,14.74a4.08,4.08,0,0,0-1.62-3.56A6.72,6.72,0,0,0,117.1,345h-8.32v10.7h8.32a6.46,6.46,0,0,0,4.87-1.69A4.59,4.59,0,0,0,123.59,350.19Z"/><path class="cls-1" d="M157.55,335.66h18.09v8.73H157.55v11.35h21.2v8.73H146.39V316.85h32.36v8.73h-21.2Z"/><path class="cls-1" d="M193.4,353.57V316.85h12v33.62a4.86,4.86,0,0,0,.79,3.14,3.23,3.23,0,0,0,2.59.93h2.9v9.93h-4.8c-3.45,0-8.68-.94-10.59-2.83S193.4,357.07,193.4,353.57Z"/><path class="cls-1" d="M240.25,315.12v7.7H228.11v-7.7Zm-.06,12.6v36.75H228.25V327.72Z"/><path class="cls-1" d="M266,345.32c0,3.34-.22,6.74,1.27,8.17a8.86,8.86,0,0,0,6.39,2.16,8.37,8.37,0,0,0,5.05-1.34c1.21-.89,1.87-3.15,2-4.76l.08-.26H290v.43c0,4.26-1.58,8.69-4.75,11.28s-6.51,3.89-12,3.89c-5.75,0-9.36-1.66-12.76-5s-5.09-9.43-5.09-16.34v-5.43c0-6.74,1.64-10.78,4.92-14.14s6.83-5,12.59-5,9.14,1.7,12.45,5.09,5,7.42,5,14.1v5.95H266Zm0-8.81v.26h13.6v-1.12c0-5.7-1.59-8.54-6.71-8.54a7.63,7.63,0,0,0-5.83,2.15C265.75,330.7,266,333.12,266,336.51Z"/><path class="cls-1" d="M359.51,345.32c0,3.34-.22,6.74,1.28,8.17a8.86,8.86,0,0,0,6.39,2.16,8.37,8.37,0,0,0,5.05-1.34c1.21-.89,1.87-3.15,2-4.76l.09-.26h9.17v.43c0,4.26-1.58,8.69-4.74,11.28s-6.52,3.89-12,3.89c-5.76,0-9.37-1.66-12.76-5s-5.09-9.43-5.09-16.34v-5.43c0-6.74,1.64-10.78,4.92-14.14s6.83-5,12.58-5,9.15,1.7,12.46,5.09,5,7.42,5,14.1v5.95H359.51Zm0-8.81v.26h13.61v-1.12c0-5.7-1.6-8.54-6.72-8.54a7.66,7.66,0,0,0-5.83,2.15C359.22,330.7,359.51,333.12,359.51,336.51Z"/><path class="cls-1" d="M311.43,319.49,320.15,348l8.63-28.48h11.31l-15.63,44.88h-8.8l-15.54-44.88Z"/><path class="cls-1" d="M470.56,376a1.64,1.64,0,0,0,0-.23l-.06-.34c0-.07,0-.15-.05-.22s-.08-.24-.13-.36l-.06-.18a4.59,4.59,0,0,0-.26-.49h0L238.68,1.89A4,4,0,0,0,235.29,0h0a4,4,0,0,0-3.39,1.89L.6,374.85h0a4.06,4.06,0,0,0-.26.51l-.06.15c-.05.13-.09.25-.13.38a1.77,1.77,0,0,0,0,.2c0,.12,0,.24-.07.36s0,.15,0,.22,0,.23,0,.35a1.77,1.77,0,0,0,0,.23c0,.12,0,.23,0,.35s0,.15,0,.22.07.26.11.38,0,.1,0,.14a.05.05,0,0,0,0,0,3.06,3.06,0,0,0,.22.49l.05.08a3,3,0,0,0,.29.44l.12.15c.09.09.17.19.26.27s.11.1.16.15l.27.22.19.13.29.17.21.11.32.13.21.07c.12,0,.25.06.37.09l.19,0A5.65,5.65,0,0,0,4,381H4l462.59-.64a3.79,3.79,0,0,0,.58-.05l.19,0,.37-.08.21-.08.32-.13.21-.1.29-.18.19-.13a2.61,2.61,0,0,0,.27-.22l.16-.14c.09-.09.17-.19.25-.28l.13-.15a3.46,3.46,0,0,0,.31-.47l0-.06a3.41,3.41,0,0,0,.22-.48.08.08,0,0,1,0,0,.57.57,0,0,1,0-.14c0-.13.07-.25.1-.38a1.57,1.57,0,0,0,0-.23c0-.11,0-.22,0-.33a2.18,2.18,0,0,0,0-.25C470.57,376.26,470.57,376.15,470.56,376ZM449.8,356.9l-142-120.13a4,4,0,0,0-4.19-.61l-8.7,3.82-20.16-20a59.63,59.63,0,0,0,14.72-20.05L374.05,235ZM370.42,229.12l-79.48-32.93a60,60,0,0,0,3.71-18.89h43.58ZM335.75,173.3h-41.1a59.45,59.45,0,0,0-3.72-18.88l26.32-10.9Zm-20.64-33.22L289.4,150.73a59.8,59.8,0,0,0-10.66-16l20.36-20.37Zm-18.17-29.26-21,21A60.07,60.07,0,0,0,260,121l17.33-41.82Zm-59.65-96L274.68,75l-18.42,44.45a59.21,59.21,0,0,0-19-3.9ZM286.7,175.3a51.57,51.57,0,0,1-17.69,39l-31.2-31a4,4,0,0,0-5.65,0L201,214.46A51.82,51.82,0,1,1,286.7,175.3ZM233.29,14.81V115.52a59.25,59.25,0,0,0-19.09,3.64L195.93,75.05ZM193.34,79.23l17.16,41.46a60,60,0,0,0-16.25,10.75l-20.54-20.55Zm-21.8,35.15,19.87,19.88a59.73,59.73,0,0,0-10.92,16.17l-24.91-10.31Zm-18.09,29.18,25.49,10.56a59.36,59.36,0,0,0-3.84,19.18H135ZM132.52,177.3h42.59a59.76,59.76,0,0,0,3.81,19.18L100.49,229ZM96.87,234.79l83.59-34.62a59.53,59.53,0,0,0,14.82,20l-20,20-8.72-3.8a4,4,0,0,0-4.19.62L20.85,357.37ZM223.11,372.67,14.88,373,147.19,260.38a4,4,0,0,0,1.28,1.84l28.8,23a4,4,0,0,0,2.5.87,3.89,3.89,0,0,0,1.63-.35L212.13,272c.44-.55.89-1.1,1.34-1.64s1-1.15,1.42-1.74,1.17-1.44,1.76-2.15c.38-.46.76-.92,1.13-1.39-.53-1.13-1.08-2.38-1.59-3.67l-35.83,16L153.47,256a3.83,3.83,0,0,0-.62-.4l12.79-10.89,8.93,3.89a4,4,0,0,0,4.43-.84l56-56,56.15,55.85a4,4,0,0,0,4.43.83l8.91-3.92,13,11c-.14.09-.28.16-.41.26l-26.83,21.59-37.67-16.78c-.24.42-.47.85-.7,1.26l-1,1.77c-.49.88-1,1.79-1.51,2.7l1,1.6c.14.23.3.45.46.67l38.33,17.08a4,4,0,0,0,4.14-.53L322.11,262a4,4,0,0,0,1.17-1.61l132.39,112Z"/><path class="cls-1" d="M218.33,293.68a39.88,39.88,0,0,1-1.38-3.84c-.49-1.33-1-2.68-1.35-4s-.76-2.58-1-3.89a1.41,1.41,0,0,1,0-.81,4.83,4.83,0,0,1,.72-.86c.42-.51.83-1,1.25-1.53.88-1.07,1.74-2.16,2.6-3.24s1.8-2.16,2.67-3.27,1.83-2.22,2.73-3.34c.46-.58.93-1.16,1.4-1.73l.58-.71c.27-.32.14-.4,0-.75a53.06,53.06,0,0,1-3.27-7.35c-.42-1.24-.84-2.47-1.23-3.73-.2-.63-.37-1.28-.53-1.93a11.59,11.59,0,0,1-.41-2c-.16-2.87-2.18-8.85-.63-13.57s6.52-7.36,9-8.49a13.43,13.43,0,0,1,8.11-.94c2.72.53,9.13,1.92,11.68,10.05s-1.06,14.16-1.49,15.51a41.68,41.68,0,0,1-3.61,7.42c-.66,1.2-1.3,2.4-2,3.57-.35.6-.7,1.2-1.07,1.79-.13.21-.41.48-.37.73s.22.31.3.42.23.33.34.49c.79,1.13,1.55,2.29,2.3,3.45s1.59,2.27,2.35,3.44,1.58,2.21,2.32,3.35,1.61,2.39,2.4,3.59,1.54,2.32,2.33,3.47c.19.27.39.47.36.81s-.11.71-.17,1.07c-.11.65-.26,1.3-.4,1.94-.54,2.56-1.2,5.09-1.73,7.65-.27,1.32-.61,2.62-.93,3.92-1.05-1.34-2-2.8-3-4.18s-2-2.84-3-4.25c-2-2.81-4-5.58-5.89-8.46-.93-1.42-1.9-2.83-2.85-4.24-.48-.72-1-1.44-1.48-2.14-.1-.15-.42-.78-.58-.78s-.23.24-.29.31l-.48.53c-2.23,2.54-4.38,5.16-6.63,7.69-1.31,1.47-2.56,3-3.85,4.48s-2.53,2.92-3.74,4.42C218.28,293.58,218.52,293.44,218.33,293.68ZM234,257.18c1.45-1.67,2.86-3.39,4.21-5.14a55.2,55.2,0,0,0,3.78-5.33,26.31,26.31,0,0,0,2.68-6c.08-.29.14-.57.19-.86a2.38,2.38,0,0,0,.1-.73c-.09-.4-.72-.78-1-1a13.35,13.35,0,0,0-2.55-1.8,13.88,13.88,0,0,0-9.31-1.66,12.31,12.31,0,0,0-3.19.94,15.62,15.62,0,0,0-2.63,1.44,9.08,9.08,0,0,0-1.13.92c-.25.24-1,.74-.93,1.09a6,6,0,0,0,.38,1.32c.18.52.36,1,.57,1.54.43,1,.86,2.08,1.37,3.09,2.17,4.26,4.9,8.21,7.47,12.24C234.29,256.87,233.81,256.85,234,257.18Z"/></g></g></svg>