<svg xmlns="http://www.w3.org/2000/svg" viewBox="0 0 629.59 498.98"><defs><style>.cls-1{fill:#fff;}.cls-2{fill:none;stroke:#fff;stroke-linecap:round;stroke-miterlimit:10;stroke-width:6px;}</style></defs><title>Asset 1</title><g id="Layer_2" data-name="Layer 2"><g id="Layer_1-2" data-name="Layer 1"><path class="cls-1" d="M565.2,170.12a1,1,0,0,1-.94-.68,247.59,247.59,0,0,0-463.83-12.58,1,1,0,1,1-1.86-.75,249.6,249.6,0,0,1,467.58,12.68,1,1,0,0,1-.62,1.27A1,1,0,0,1,565.2,170.12Z"/><path class="cls-1" d="M330,499A249.62,249.62,0,0,1,92.18,325.12a1,1,0,0,1,.65-1.26,1,1,0,0,1,1.26.65,247.58,247.58,0,0,0,470.67,3.54,1,1,0,0,1,1.9.63A249.61,249.61,0,0,1,330,499Z"/><path class="cls-1" d="M558.84,179a3,3,0,0,1-2.85-2.08,237.38,237.38,0,0,0-442.54-24.59,3,3,0,0,1-5.47-2.46A243.39,243.39,0,0,1,561.7,175.08a3,3,0,0,1-2.86,3.91Z"/><path class="cls-2" d="M546.62,353.62A240.32,240.32,0,0,1,330,489.78c-105.06,0-194.36-67.42-227-161.35"/><path class="cls-1" d="M194.65,110.27l21,2.81,5.23-7.65.1-9,13.78-6.27.06-5.14,9,.1,6.06-5.5,6.81.08,6.19-12.78,5.65-7.22,9-2L298.32,35.2l24.95-9.14,8.64-6.33,4.26,2.19,28.27,37.59L396.51,65l11,13L416,83.23l12.08,29.7,7.32-2.92,3.84,1.33,2.64-6,8.51,4.81,8.46,9.95L471.5,138.7l27.24,14.87,5.91,8.21,38.81,15.43,3.8,4.33s2.06,7.31-9.09,8.89l-17.06-7-1.24-3.87-13.26-1.44-8.05-8.66L493,165.5l-4.24-4.33-26-14-10.07-18.54s-3.45-4.77-4.23-4.76c-.28,0-5.48,3.93-11.35,12.47-1.61,2.34-2.77,7.57-4.49,10.09-1.27,1.86-5,1.63-6.31,3.5a140.35,140.35,0,0,0-13.27,25.38l.26-21.8,5.16-20.24-29,19.92s24.42-27.81,24.75-29.28c1.51-6.79-2.39-15.88-2.39-15.88l-3.82-3.25-9-.11,4.51-19.87s-10.75-11.19-15.32-9.17c-1.91.85,2,24,.12,26.57-.81,1.09-13.73,2.2-13.73,2.2s-4.35-.56-6-.07-12.52,9.07-12.52,9.07l6.58-14.07,13.36-6.7s-.74-11.25-6.29-11.64c-3.53-.24-32.39,23-32.39,23l-8.6,2.26-21,3.19-3.13,16.2L292.1,132.7,267.39,142l26.54-22L301,101.2l18-1.08,35.83-24.44.53-8.56L352.05,56.8,333.88,34.32l-5.55-1.78-9.47,4.61L328,60l-9,4.18,1,20.57L307.7,76.86,262.29,114s2.32-15.35,3.43-17.05c.95-1.45,3.35-.91,3.22-2.58s-12.4-6.57-12.4-6.57l-13.28,5L242,126.66l-14-7-9.54,10.17-15.8-4.89-25.09,21.13L170.12,158s-20.25,9.62-27,2.69c-3.42-3.5,9.2-17.89,9.2-17.89l20.29-14.34,9.53-8.88,7.33-4.2Z"/><path class="cls-1" d="M150,206.81c0-19.06-18.43-29.32-37.28-29.32-38.75,0-61.16,21.57-61.16,46.91,0,12.78,10.26,16.76,10.26,19.48,0,2.94-1.47,4-4.4,4-11.1,0-33.3-10.26-33.3-26.81,0-31.21,44.4-55.5,89-55.5,31.84,0,61.16,13.61,61.16,40.63,0,24.51-28.91,38.33-30.37,38.75.63.21,23.88,9.64,23.88,34.56,0,28.07-26,39.8-47.76,39.8-18.85,0-36-8-51.32-16.13-9.42,10.68-20.11,16.13-35.19,16.13C16.34,319.29,0,310.07,0,295.41c0-15.5,14.66-24.71,26.81-24.71,10.89,0,21.37,4.19,31.63,9.42l2.3-4c11.52-20.94,26.81-75.4,35.4-80.85,10.06-6.7,20.74-8.59,25.56-8.59,2.93,0,3.56,1.26,3.56,2.93s-7.13,8.17-12.15,19.28c-2.52,5.86-16.55,49-30.37,73.52-1.68,3.14-3.35,5.86-5,8.58,11.52,6.5,22.83,11.94,34.35,11.94,15.5,0,29.32-11.31,29.32-28.9,0-13.62-7.12-22-13-22.62,0,0-6.08,2.51-10.68,2.51-6.08,0-11.11-3.56-11.11-9,0-6.07,5-9.42,10.69-9.42,5.86,0,13,2.3,13,2.3S150,227.55,150,206.81ZM17.18,297.09c0,5.65,5.65,9.42,12.35,9.42,8.59,0,14.46-4.4,20.74-13.19-8-4-15.29-6.71-22-6.71C21.78,286.61,17.18,291.43,17.18,297.09Z"/><path class="cls-1" d="M256.84,274.81c0-34.08,25.26-94.26,49.67-94.26,7.63,0,14.24,7.8,14.24,13.9,0,14.41-25.09,53.74-42,68.15a79.5,79.5,0,0,0-1.36,12.89c0,7.79,3.9,13.39,10.85,13.39,9.16,0,18.14-14.58,18.14-14.58s1.36-2.37,3.39-2.37a3.54,3.54,0,0,1,3.56,3.39c0,1.52-1.52,4.07-1.52,4.07s-12.38,20.85-29.16,20.85C269.22,300.24,256.84,290.74,256.84,274.81Zm53.4-82.9c-6.1,0-22,30.85-29,59.16,11.7-9.66,31-46.45,31-56.79C312.28,192.76,311.43,191.91,310.24,191.91Z"/><path class="cls-1" d="M331.09,288.88c9.15,0,18.14-14.58,18.14-14.58s1.36-2.37,3.39-2.37a3.54,3.54,0,0,1,3.56,3.39c0,1.52-1.53,4.07-1.53,4.07s-12.37,20.85-29.15,20.85c-12.89,0-21.53-7.63-21.53-18.65,0-12.21,9.15-36.62,13.22-46.11a5.13,5.13,0,0,1,4.58-3.22c5.08,0,13.39,7.12,13.39,9.66,0,10.17-9.49,24.07-9.49,40.52C325.67,286.34,327.7,288.88,331.09,288.88Zm5.26-70.52c-4.92,0-9.16-3.56-9.16-9.67,0-8.64,6.78-17.12,14.24-17.12,4.92,0,8.65,3.73,8.65,9.33C350.08,209.88,343.64,218.36,336.35,218.36Z"/><path class="cls-1" d="M377.37,300.24c-17.12,0-29.5-10.51-29.5-24.92,0-25.94,21.53-43.06,36.28-43.06,10.34,0,18.65,8.81,18.65,17.8,0,8.14-6.28,25.09-27.64,25.09a46.59,46.59,0,0,1-6.44-1c0,10,6.78,15.77,14.92,15.77,16.11,0,26.11-15.6,26.11-15.6s1.35-2.37,3.39-2.37a3.55,3.55,0,0,1,3.56,3.39c0,1.52-1.53,4.07-1.53,4.07S403.14,300.24,377.37,300.24Zm14.24-56c0-2.2-1.19-3.39-3.05-3.39-9.33,0-19,17.46-19,26.28C382,267.18,391.61,251.41,391.61,244.29Z"/><path class="cls-1" d="M456.2,294a49.63,49.63,0,0,1-17.13-3.72c-12,7.62-19,10-23.22,10-3.73,0-8.48-5.94-8.48-11.87,0-19,9.16-43.4,13.22-52.89a5.14,5.14,0,0,1,4.58-3.22c5.09,0,13.39,8.81,13.39,11.36,0,10.17-11,26.95-11,37.8,0,2.54,1,4.58,2.88,4.58a5,5,0,0,0,2.37-.85v-.85c0-3.73,5.76-8.31,8.48-8.31h.17c7.12-9.83,14.75-25.42,14.75-40.34,0-2,1-3.39,3.56-3.39,5.25,0,13.56,5.93,13.56,13.73,0,8.64-10.34,24.75-23.06,35.94a14.33,14.33,0,0,0,10,3.9c11.53,0,20-11.53,20-11.53s1.35-2.37,3.39-2.37a3.55,3.55,0,0,1,3.56,3.39c0,1.52-1.53,4.07-1.53,4.07A36.57,36.57,0,0,1,456.2,294Z"/><path class="cls-1" d="M532.82,280.74s2-2.37,3.72-2.37a3.44,3.44,0,0,1,3.57,3.39c0,1.52-2.21,4.07-2.21,4.07s-11.19,14.41-29.5,14.41c-17.12,0-29.49-10.51-29.49-24.92,0-25.94,21.53-43.06,36.27-43.06,10.35,0,18.65,8.81,18.65,17.8,0,8.14-6.27,25.09-27.63,25.09a46.32,46.32,0,0,1-6.44-1c0,10,6.95,15.09,15.09,15.09C525.19,289.22,530.44,283,532.82,280.74Zm-10.18-36.45c0-2.2-1.18-3.39-3-3.39-9.32,0-19,17.46-19,26.28C513,267.18,522.64,251.41,522.64,244.29Z"/><path class="cls-1" d="M254.36,272.73a46.47,46.47,0,0,1-13.68,12.63,33.24,33.24,0,0,1-18,4.87q-11.06-.25-16.91-5.74t-5.61-16.55a32.53,32.53,0,0,1,4-15.55,51.45,51.45,0,0,1,8.24-11.06,55.6,55.6,0,0,1,11.8-8.87,19.3,19.3,0,0,0,3.82,1.84,25.55,25.55,0,0,0,4.54,1.25,35.94,35.94,0,0,0,5.79.57,11.89,11.89,0,0,0,8.22-2.55c2.09-1.76,3.15-3.53,3.19-5.28q.13-6.15-10.22-6.38-2.81-.06-5,.06c-1.47.09-2.72.18-3.78.27-1.3.21-2.41.36-3.35.45a35,35,0,0,1-1.85-3.73,20.65,20.65,0,0,1-1.4-4.16,23.62,23.62,0,0,1-.67-5.37,74.09,74.09,0,0,1,1.28-10,34.69,34.69,0,0,1,4.42-9.3,35.79,35.79,0,0,1,6.49-7.23,29,29,0,0,1,7.66-4.66,20.09,20.09,0,0,1,8.11-1.58,11.67,11.67,0,0,1,6.29,1.81,5.1,5.1,0,0,1,2.53,4.54,8.22,8.22,0,0,0,8.41,2.69c5.4-1.34,4.16-6.89,4.16-6.89a15.42,15.42,0,0,0-4.72-5,25.39,25.39,0,0,0-7.13-3.33,33.25,33.25,0,0,0-8.84-1.34A54.15,54.15,0,0,0,238,170.75a61.86,61.86,0,0,0-13.73,5.14,59,59,0,0,0-11.78,8c-3.52,3.08-5.52,4.59-8.22,10a26.84,26.84,0,0,0-2.79,15.05c.57,4,1.22,5.65,2.46,7.78a25.53,25.53,0,0,0,3.93,5.28,19.46,19.46,0,0,0,3.79,3.07,11.41,11.41,0,0,0,1.91,1c-.35.11-1.5.53-3.45,1.25a58.58,58.58,0,0,0-7,3.26,99.44,99.44,0,0,0-8.82,5.43,46.63,46.63,0,0,0-8.79,7.89,45.24,45.24,0,0,0-6.82,10.56,33.39,33.39,0,0,0-2.94,13.46,26.91,26.91,0,0,0,3.46,14.58,31.86,31.86,0,0,0,9.43,10.13,41.75,41.75,0,0,0,13.13,5.92,64.12,64.12,0,0,0,14.72,2.08,48.72,48.72,0,0,0,15-1.86,53.27,53.27,0,0,0,12.51-5.43,50.3,50.3,0,0,0,9.92-7.77c.86-.88,1.67-1.76,2.44-2.65l4.42-5L259.57,267S255.6,271.21,254.36,272.73Z"/><path class="cls-1" d="M541.55,344.58c-1.48-3.07-2.32-6.49-3.49-9.69s-2.4-6.75-3.39-10.17c-.93-3.24-1.92-6.49-2.59-9.8a3.73,3.73,0,0,1-.14-2,12.92,12.92,0,0,1,1.82-2.18c1.06-1.28,2.09-2.58,3.15-3.86,2.22-2.68,4.38-5.42,6.54-8.15s4.55-5.45,6.75-8.24,4.61-5.58,6.87-8.41c1.17-1.46,2.34-2.92,3.53-4.36l1.46-1.78c.66-.8.35-1-.11-1.88a132.64,132.64,0,0,1-8.23-18.53c-1.06-3.12-2.13-6.23-3.1-9.38-.5-1.61-.94-3.24-1.34-4.86a29.19,29.19,0,0,1-1-5.12c-.41-7.24-5.51-22.32-1.61-34.2s16.45-18.54,22.63-21.38a33.85,33.85,0,0,1,20.42-2.36c6.88,1.32,23,4.83,29.44,25.3s-2.67,35.67-3.75,39.08c-2.09,6.6-5.75,12.66-9.09,18.7-1.66,3-3.29,6-5.06,9-.9,1.5-1.78,3-2.72,4.51-.32.51-1,1.2-.91,1.82.06.34.53.78.74,1.08l.87,1.23c2,2.85,3.91,5.76,5.79,8.68s4,5.73,5.92,8.66,4,5.58,5.85,8.44c2,3,4.05,6,6.05,9.05s3.88,5.84,5.86,8.73c.47.69,1,1.2.89,2s-.26,1.8-.41,2.69c-.27,1.65-.66,3.27-1,4.91-1.37,6.44-3,12.82-4.37,19.27-.68,3.3-1.54,6.59-2.34,9.87-2.65-3.38-5-7.06-7.5-10.53S609,343.56,606.51,340c-5-7.06-10.1-14.06-14.83-21.3-2.34-3.59-4.8-7.13-7.19-10.7-1.21-1.81-2.46-3.61-3.72-5.39-.26-.35-1.06-1.95-1.46-2-.22,0-.58.62-.73.78-.4.45-.81.89-1.2,1.34-5.63,6.41-11,13-16.71,19.38-3.3,3.7-6.45,7.53-9.7,11.28s-6.38,7.35-9.42,11.14C541.42,344.32,542,344,541.55,344.58Zm39.52-92c3.67-4.19,7.2-8.53,10.6-12.94a135.36,135.36,0,0,0,9.53-13.43A66.37,66.37,0,0,0,607.94,211a15.83,15.83,0,0,0,.48-2.17,5.6,5.6,0,0,0,.27-1.83c-.22-1-1.82-2-2.54-2.57a34.64,34.64,0,0,0-6.43-4.52,40.52,40.52,0,0,0-15.08-4.62,41.17,41.17,0,0,0-8.37.44,30.93,30.93,0,0,0-8,2.35,38.05,38.05,0,0,0-6.62,3.64,22.66,22.66,0,0,0-2.86,2.32c-.63.59-2.43,1.87-2.35,2.74a16.09,16.09,0,0,0,1,3.33c.45,1.3.9,2.59,1.43,3.86,1.08,2.62,2.16,5.26,3.45,7.78,5.46,10.74,12.35,20.7,18.82,30.84C581.76,251.84,580.55,251.81,581.07,252.62Z"/><path class="cls-1" d="M123,353.3q3.25,6.49,6.9,12.77h401q3.64-6.27,6.9-12.77Z"/><path class="cls-1" d="M133.84,372.58q4.09,6.53,8.62,12.77H518.38q4.53-6.24,8.62-12.77Z"/><path class="cls-1" d="M144.85,388.61q6.19,8.25,13.16,16H502.84q6.95-7.71,13.15-16Z"/><path class="cls-1" d="M499.84,407.83H161c1.78,1.9,3.58,3.79,5.43,5.64q7.11,7.11,14.74,13.51H479.66q7.62-6.42,14.74-13.51C496.25,411.62,498.06,409.73,499.84,407.83Z"/><path class="cls-1" d="M185.13,430.24a230.11,230.11,0,0,0,33.28,22.35h224a230,230,0,0,0,33.27-22.35Z"/><path class="cls-1" d="M330.42,481.39a230.5,230.5,0,0,0,90.27-18.22q8-3.37,15.65-7.32H224.5q7.67,3.93,15.66,7.32A230.41,230.41,0,0,0,330.42,481.39Z"/><path class="cls-1" d="M330.62,492.78A243.5,243.5,0,0,1,100.76,329.42a3,3,0,0,1,5.67-2,237.37,237.37,0,0,0,438.1,24.88,3,3,0,1,1,5.4,2.61A243.29,243.29,0,0,1,330.62,492.78Z"/><path class="cls-1" d="M533.37,336.71c-.15-.39-.28-.76-.41-1.13H115c.56,1.39,1.12,2.79,1.7,4.18q1.16,2.72,2.37,5.4H536.29c-.72-1.75-1.29-3.5-1.84-5.21C534.09,338.81,533.74,337.74,533.37,336.71Z"/><path class="cls-1" d="M529.47,324.81c-.51-1.75-1-3.55-1.5-5.38h-383A65.75,65.75,0,0,1,120,324.29a73.87,73.87,0,0,1-9.34-.61c.24.71.46,1.43.71,2.13H529.76Z"/><path class="cls-1" d="M164.58,304.84c-.84,1.1-1.75,2.16-2.71,3.19H529.52v0a3.32,3.32,0,0,0,.37-.39q.75-.9,1.47-1.8c.27-.33.54-.65.8-1Z"/></g></g></svg>