<svg xmlns="http://www.w3.org/2000/svg" viewBox="0 0 464.9 240.14"><defs><style>.cls-1{fill:#fff;}</style></defs><title>Artboard 4</title><g id="Layer_3" data-name="Layer 3"><path class="cls-1" d="M161.74,100.49a5.39,5.39,0,0,0,4.07.55,6,6,0,0,0,2.77-1.56,9.42,9.42,0,0,0,2-2.87,11.36,11.36,0,0,0,1-3.65,11.57,11.57,0,0,0-.29-3.91,5.55,5.55,0,0,0-2.37-3.55,4.89,4.89,0,0,0-3.92-.59,6.44,6.44,0,0,0-2.92,1.6,9.14,9.14,0,0,0-2,2.88A12.42,12.42,0,0,0,159,93a10.15,10.15,0,0,0,.2,3.78A5.5,5.5,0,0,0,161.74,100.49Z"/><path class="cls-1" d="M292,108.72a1.93,1.93,0,0,0-.92-1.22,2,2,0,0,0-1.61-.22,1.51,1.51,0,0,0-.72.43l-.58.61-.51.85q-.37.61-1,1.65a14.51,14.51,0,0,1-1.7,2.12,14,14,0,0,1-2.59,2.08,12.52,12.52,0,0,1-3.81,1.56,9.53,9.53,0,0,1-6.62-.65q-3.11-1.51-4.19-5.9a14.24,14.24,0,0,0,1.54-.07,9.5,9.5,0,0,0,2.31-.26,16.88,16.88,0,0,0,7.26-3.49,15.64,15.64,0,0,0,3.93-5.05,14.89,14.89,0,0,0,1.42-5.37,15.06,15.06,0,0,0-.26-4.43,9.52,9.52,0,0,0-1.76-3.6,10.76,10.76,0,0,0-3.09-2.7,12.27,12.27,0,0,0-4-1.45,10.4,10.4,0,0,0-4.41.15,16.43,16.43,0,0,0-6.44,3.45,24.07,24.07,0,0,0-5.55,6.69,28.29,28.29,0,0,0-3.24,9.12,25.33,25.33,0,0,0,.44,10.65c0,.09.05.16.07.25A26.82,26.82,0,0,1,254,117a20.23,20.23,0,0,1-3,3.18,10.42,10.42,0,0,1-4.33,2.15,7.49,7.49,0,0,1-3.53.14,14,14,0,0,1-2.77-1,58.3,58.3,0,0,0,3.88-6.54,53.8,53.8,0,0,0,2.86-6.65,31.68,31.68,0,0,0,1.51-6.06,12.78,12.78,0,0,0-.07-4.69A6.74,6.74,0,0,0,247,94.65a9.78,9.78,0,0,0-2.57-2.06,9.25,9.25,0,0,0-2.94-1,6.67,6.67,0,0,0-2.68,0,1.82,1.82,0,0,0-1.57,2.46,29.79,29.79,0,0,1,.85,6.62,42.09,42.09,0,0,1-.42,6.72,50.55,50.55,0,0,1-1.33,6.38,51.47,51.47,0,0,1-1.89,5.58l-.1,0a3.24,3.24,0,0,0-1.31.79,8.78,8.78,0,0,0-1.33,1.52,6.91,6.91,0,0,0-.93,1.88,3.31,3.31,0,0,0-.13,1.79l.12.49a2.76,2.76,0,0,1-1.25.82,1.38,1.38,0,0,1-1.41-.48,3.83,3.83,0,0,1-.9-1.75,16.87,16.87,0,0,1-.31-5.46q.27-3.12.77-6.34t.79-6.24a15.81,15.81,0,0,0-.26-5.26A3.39,3.39,0,0,0,227,99.66,15.13,15.13,0,0,0,224.53,98a16.88,16.88,0,0,0-3-1.28,5,5,0,0,0-2.64-.23,2.53,2.53,0,0,0-1.43.92A3.94,3.94,0,0,0,216.7,99q-.37,2.26-.84,6t-.61,8.27q-.14,4.48.08,9.19c0,.55.07,1.09.11,1.62a20.77,20.77,0,0,1-2.4,4.21,24.43,24.43,0,0,1-4,4.25,14.16,14.16,0,0,1-5.9,2.95,8.86,8.86,0,0,1-6.62-.86q-3.11-1.72-4.19-6.11a14.24,14.24,0,0,0,1.54-.07,9.5,9.5,0,0,0,2.31-.26,16.88,16.88,0,0,0,7.26-3.49,15.64,15.64,0,0,0,3.93-5.05,14.89,14.89,0,0,0,1.42-5.37,15.06,15.06,0,0,0-.26-4.43,9.52,9.52,0,0,0-1.76-3.6,10.77,10.77,0,0,0-3.09-2.7,12.27,12.27,0,0,0-4-1.45,10.4,10.4,0,0,0-4.41.15,16.43,16.43,0,0,0-6.44,3.45,24.07,24.07,0,0,0-5.55,6.69,28.29,28.29,0,0,0-3.24,9.12,25.33,25.33,0,0,0,.44,10.65c0,.2.12.39.18.58a21.15,21.15,0,0,1-1.73,3.62,17.57,17.57,0,0,1-2.65,3.75,7.09,7.09,0,0,1-3.54,2.21,2.86,2.86,0,0,1-2.54-.46,4.24,4.24,0,0,1-1.49-2.48,28.25,28.25,0,0,1-.84-7q0-3.47.33-6.65t.55-6a15.49,15.49,0,0,0-.31-5,2.74,2.74,0,0,0-1.15-1.32,12.14,12.14,0,0,0-2.39-1.33,17.16,17.16,0,0,0-2.92-.94,5.76,5.76,0,0,0-2.61-.08A2.53,2.53,0,0,0,158,112a3.94,3.94,0,0,0-.75,1.58q-.37,2.26-.85,6t-.71,7.83q-.24,4.09-.2,8a36.22,36.22,0,0,0,.26,4.12,20.65,20.65,0,0,1-1.43,2.89,17.56,17.56,0,0,1-2.65,3.75,7.09,7.09,0,0,1-3.54,2.21,5.6,5.6,0,0,1-5.16-1,9.29,9.29,0,0,1-3-5.16q-.31-1.27-.54-2.61a23.5,23.5,0,0,1-.3-2.46q-.12-1.31-.21-2.53a47.63,47.63,0,0,0,3.89-6.49q2-3.84,3.74-8.16t3.31-8.83q1.53-4.51,2.48-8.63a60.39,60.39,0,0,0,1.3-7.56,16.93,16.93,0,0,0-.16-5.49A6.4,6.4,0,0,0,152.11,87a10.39,10.39,0,0,0-2.44-2.14,10.56,10.56,0,0,0-3.06-1.31,6.73,6.73,0,0,0-3.31,0A11.81,11.81,0,0,0,137,87.86,34.55,34.55,0,0,0,132,96.57a65.54,65.54,0,0,0-3.42,11.55,114.1,114.1,0,0,0-1.87,12.82,89.23,89.23,0,0,0-.23,12.73,60.8,60.8,0,0,0,1.54,11.1c0,.18.1.34.15.52a26.5,26.5,0,0,1-5.67,9,19,19,0,0,1-9.23,5.37q-6.15,1.51-10.19-.65t-5.56-8.31a18.55,18.55,0,0,1-.13-9.17,29.19,29.19,0,0,1,2.91-7.33,31.7,31.7,0,0,1,5.19-6.65,11,11,0,0,0,2.38.45,14.7,14.7,0,0,0,2.69,0,20.14,20.14,0,0,0,3.28-.55,6.78,6.78,0,0,0,4.16-2.63,4.28,4.28,0,0,0,1-3.39q-.84-3.41-6.59-2-1.56.38-2.76.78t-2,.71q-1,.46-1.78.75a20.59,20.59,0,0,1-1.58-1.79,11.9,11.9,0,0,1-1.39-2.09,15.8,15.8,0,0,1-1.17-2.87,64.23,64.23,0,0,0,11.19-4.56,42.43,42.43,0,0,0,8-5.39,18.53,18.53,0,0,0,4.57-5.62,7.77,7.77,0,0,0,.75-5.36,6.94,6.94,0,0,0-1.85-3.32A8.85,8.85,0,0,0,121,88.62a14.54,14.54,0,0,0-4.43-.77,19,19,0,0,0-5.08.58,31,31,0,0,0-7.54,3,35.11,35.11,0,0,0-6.82,4.88,33.83,33.83,0,0,0-5.31,6.17,21,21,0,0,0-3,6.75,13.38,13.38,0,0,1-4.68-2.63,7.76,7.76,0,0,1-2.43-4,5.1,5.1,0,0,1,.15-3.19,4,4,0,0,0,.46-1.92,1.09,1.09,0,0,0-.34-.54.78.78,0,0,0-.75-.13,7.1,7.1,0,0,0-2.79,1.93,22.29,22.29,0,0,0-3.21,4,20.58,20.58,0,0,0-2.33,5,9.4,9.4,0,0,0-.24,5.13q.86,3.51,5.07,4.86t11.79.21A11.84,11.84,0,0,0,92,121.86a14.69,14.69,0,0,0,3,2.33,10.86,10.86,0,0,0,2.55,1.13,6.81,6.81,0,0,0,1.2.27q-.27.17-1.72,1.2a33.12,33.12,0,0,0-3.38,2.85,55.63,55.63,0,0,0-4.06,4.31,26.56,26.56,0,0,0-3.68,5.66,25.81,25.81,0,0,0-2.2,6.85,19,19,0,0,0,.38,7.87,15.35,15.35,0,0,0,4.07,7.53,18.23,18.23,0,0,0,6.72,4.19,23.74,23.74,0,0,0,8.13,1.31,36.42,36.42,0,0,0,8.43-1,27.83,27.83,0,0,0,8-3.26,30.52,30.52,0,0,0,6.1-4.86,28.8,28.8,0,0,0,4.32-5.77c.34-.61.66-1.22,1-1.83a14.45,14.45,0,0,0,4.4,3.82,14.21,14.21,0,0,0,5.44,1.71,16.77,16.77,0,0,0,5.85-.4,13.09,13.09,0,0,0,6.23-3.49,28.44,28.44,0,0,0,4.31-5.4c.24-.4.47-.82.69-1.23a9.9,9.9,0,0,0,3.74,3.29,13.29,13.29,0,0,0,9.09.9l6-8.48,5.27-5.06,2.42-2.23,7.43,5.66,3.63,3.31a22.22,22.22,0,0,0,5.7-.67,23.62,23.62,0,0,0,9.15-4.21,31.81,31.81,0,0,0,5.77-5.76c.25-.33.46-.67.69-1a7.49,7.49,0,0,0,1,2.29,8.62,8.62,0,0,0,1.71,1.91,6.83,6.83,0,0,0,2,1.17,3.11,3.11,0,0,0,1.8.18,15.12,15.12,0,0,0,4.68-2.44,55.78,55.78,0,0,0,7.27-6.6,26.73,26.73,0,0,0,5.41.33,24.58,24.58,0,0,0,5-.6,20.63,20.63,0,0,0,7.15-3.1,22.71,22.71,0,0,0,4.6-4.23,17.58,17.58,0,0,0,1.15-1.46c.08.1.14.2.22.3a14,14,0,0,0,4.63,3.67,16.94,16.94,0,0,0,6.1,1.66,21.49,21.49,0,0,0,7.09-.6,19,19,0,0,0,6.76-3,28.65,28.65,0,0,0,4.62-4.14,24,24,0,0,0,3.55-5.32,10.57,10.57,0,0,1,.37-1,5.63,5.63,0,0,1,.26-.84A1.28,1.28,0,0,0,292,108.72ZM102,103.44a20.31,20.31,0,0,1,2.51-5A16.63,16.63,0,0,1,108,94.77a11.52,11.52,0,0,1,4.25-2.08,6.62,6.62,0,0,1,3.74.06,2.91,2.91,0,0,1,2.07,2.13,6.13,6.13,0,0,1-.5,4.26,12.37,12.37,0,0,1-3.35,4,25.92,25.92,0,0,1-5.71,3.47,42.36,42.36,0,0,1-7.59,2.59A19,19,0,0,1,102,103.44Zm37.58,11.09q.86-6.62,2-12.09a56.16,56.16,0,0,1,2.64-9q1.45-3.56,2.82-3.9,1.17-.29,1.51,1.08a14.46,14.46,0,0,1,.13,4.31q-.23,2.85-.87,6.37t-1.65,7.39q-1,3.87-2.19,7.52a62.16,62.16,0,0,1-2.55,6.68,26.43,26.43,0,0,1-2.7,4.8A96.93,96.93,0,0,1,139.54,114.53Zm52.16,5.18a26,26,0,0,1,1.26-5.59,18.6,18.6,0,0,1,2.48-4.85,6.33,6.33,0,0,1,3.59-2.64q1.76-.43,2.24,1.52a10.24,10.24,0,0,1,0,4,19.32,19.32,0,0,1-1.62,5,16.83,16.83,0,0,1-3.17,4.55,9.5,9.5,0,0,1-4.62,2.69A13.7,13.7,0,0,1,191.7,119.71Zm75.4-18.52a26,26,0,0,1,1.26-5.59,18.6,18.6,0,0,1,2.48-4.85,6.33,6.33,0,0,1,3.59-2.64q1.76-.43,2.24,1.52a10.24,10.24,0,0,1,0,4,19.32,19.32,0,0,1-1.62,5,16.83,16.83,0,0,1-3.17,4.55,9.5,9.5,0,0,1-4.62,2.69A13.7,13.7,0,0,1,267.1,101.19Z"/><path class="cls-1" d="M76.65,153.25a15.34,15.34,0,0,0-3.53-7,20.85,20.85,0,0,0-5-4,19,19,0,0,0-4.5-1.89,20.24,20.24,0,0,0-2.08-.47,5.85,5.85,0,0,0,1.17-.91A27.21,27.21,0,0,0,65,136.66a40,40,0,0,0,2.68-3.4,23.23,23.23,0,0,0,2.4-4.32,21,21,0,0,0,1.45-5.06,13.84,13.84,0,0,0-.27-5.52,14.87,14.87,0,0,0-4.42-7.65,20.5,20.5,0,0,0-7.8-4.39A31.49,31.49,0,0,0,49.13,105a49.27,49.27,0,0,0-11,1.45,60.51,60.51,0,0,0-14.77,5.75,53.66,53.66,0,0,0-11.92,8.72,33,33,0,0,0-7.35,10.49,17.11,17.11,0,0,0-1.06,11.07,8.76,8.76,0,0,0,3,4.8,17.12,17.12,0,0,0,5.06,2.9,21,21,0,0,0,5.68,1.24,15.7,15.7,0,0,0,4.85-.26q2-.5,1.59-2.36-.12-.49-1-.94a20.48,20.48,0,0,1-2.07-1.25,11,11,0,0,1-2.28-2.13,8.86,8.86,0,0,1-1.65-3.58,19.88,19.88,0,0,1-.16-8.86,20.63,20.63,0,0,1,3.85-8.34,28.77,28.77,0,0,1,7.81-6.94,39.47,39.47,0,0,1,11.61-4.72,24.43,24.43,0,0,1,6.65-.7,18.1,18.1,0,0,1,6.21,1.27,14.1,14.1,0,0,1,5,3.33,11.86,11.86,0,0,1,2.9,5.49,13.25,13.25,0,0,1,.1,6.7,25.45,25.45,0,0,1-2,5.25,21,21,0,0,1-3.7,4.73q-1,0-2.17,0l-2,.08a11.57,11.57,0,0,0-2.15.32,5.82,5.82,0,0,0-3.19,2,3.93,3.93,0,0,0-.71,3.64,3.72,3.72,0,0,0,2.27,2.7,6.13,6.13,0,0,0,3.93.22,7.81,7.81,0,0,0,1.61-.6l1.56-.8c.54-.34,1-.67,1.52-1q2.1-.31,4.78,2a13.1,13.1,0,0,1,3.86,7.07,13.93,13.93,0,0,1,.26,5.88,13.36,13.36,0,0,1-2,5,13.7,13.7,0,0,1-3.68,3.75,14.83,14.83,0,0,1-4.94,2.2,20.85,20.85,0,0,1-8.41.31q-4.31-.7-9-1.94l.69-2.24q.35-1.12.67-2.34a98.87,98.87,0,0,0,2.37-11q1-6.09,1.69-11.64T42.52,132q.37-4.18.59-5.37a25.82,25.82,0,0,1,2.2-7.05q1.4-2.72,1.26-3.31a1.62,1.62,0,0,0-.53-.9c-.26-.21-.75-.23-1.46-.06a24,24,0,0,0-4.82,2.06,22.6,22.6,0,0,0-6.1,4.86,8.08,8.08,0,0,0-1.51,3.53,64.23,64.23,0,0,0-1.22,6.4q-.54,3.7-1,8.11t-1,8.73q-.54,4.32-1.13,8.24a57.66,57.66,0,0,1-1.36,6.69l-.62,2.12a58.08,58.08,0,0,0-8-1.34,23.35,23.35,0,0,0-7.77.57,13.32,13.32,0,0,0-4.15,1.85,13.91,13.91,0,0,0-3.45,3.23,12.31,12.31,0,0,0-2.09,4.34,10.33,10.33,0,0,0,0,5.16,8.54,8.54,0,0,0,2.44,4.26,12.4,12.4,0,0,0,4.37,2.65,17.89,17.89,0,0,0,5.53,1,22.07,22.07,0,0,0,6-.65,21.33,21.33,0,0,0,8.7-4.15,24.31,24.31,0,0,0,5.84-7.38A116.06,116.06,0,0,0,45.81,178a34.27,34.27,0,0,0,3.93.29l.63-.89,5.27-5.06L58,170.12l6.64,5.06c.59-.28,1.18-.58,1.77-.91a23.62,23.62,0,0,0,6.35-5.08,18.45,18.45,0,0,0,3.85-7A16.85,16.85,0,0,0,76.65,153.25Zm-56.44,25.6a9.22,9.22,0,0,1-4.85,2.79,7,7,0,0,1-4.35-.23,3.84,3.84,0,0,1-2.49-2.75,4.82,4.82,0,0,1,.62-3.77,5.17,5.17,0,0,1,3.35-2.37,15.32,15.32,0,0,1,5.09-.32,52,52,0,0,1,5.92.92A19.6,19.6,0,0,1,20.21,178.86Z"/><path class="cls-1" d="M147.78,222.23a33.61,33.61,0,0,1-5-2c-.66-.33-1.33-.75-2-1.2-2-1.23-4.17-2.62-6.89-2.62-3.94,0-6.87-4.1-8.44-6.3-.2-.28-.44-.62-.59-.81l-3-1.11c-5.64-2.1-8.64-3.25-9.41-3.71a10.72,10.72,0,0,1-1.25-1c-1.34-1.12-3.37-2.82-5.72-2.82-3.69,0-5.43-2.92-6.7-5a16.89,16.89,0,0,0-1-1.63c-1.18-1.51-6.81-3.17-8.66-3.17-2.11,0-3.83-2.64-6.47-7-.65-1.06-1.26-2.06-1.8-2.83-1.14-1.64-6.24-2.25-9.51-2.17l-.8,0-.46-.65c-1.42-2-7.9-5.21-12.24-7.06-3.9,4-8.5,8.52-10.08,9.21-.78.75-1.88,4.92-1.91,5.9,0,1.28-1.28,2.2-3,3.47a13.69,13.69,0,0,0-1.87,1.49c-1.15,1.83-3.22,1.37-5.22.94l-1-.22c-1.18-.24-5.53,1-8.94,2.25l-3.57,1.86-3.42,6-.31.2a26.88,26.88,0,0,0-3.26,2.37,28.68,28.68,0,0,0-2.57,3.92l-.14.2a3.1,3.1,0,0,1-2,1.1,2.8,2.8,0,0,1-1.68-.4A22.21,22.21,0,0,0,5,213.7l-2.43-1.76c1.74-2.4,4.2-5.31,6-5.51a2,2,0,0,1,1.56.46A27.65,27.65,0,0,1,13,202.62,26.83,26.83,0,0,1,16.47,200L20,193.88l4.6-2.39c1.32-.5,8-2.94,10.66-2.41l1.08.23a9.52,9.52,0,0,0,2.09.32A10.78,10.78,0,0,1,41,187.39a17.37,17.37,0,0,0,1.86-1.45c.24-1.61,1.29-7.45,3.79-8.28.9-.45,5.76-5.15,9.71-9.23l.71-.73.94.38c1.14.47,10.72,4.44,14,7.85,2.53,0,9.14.32,11.32,3.47.58.85,1.22,1.88,1.89,3,1.09,1.79,3.11,5.09,4,5.52,2,.05,8.83,1.63,10.92,4.33a18.91,18.91,0,0,1,1.26,1.94c1.33,2.23,2.26,3.58,4.12,3.58,3.44,0,6.07,2.2,7.64,3.52a10.65,10.65,0,0,0,.86.68c.71.41,6.25,2.48,8.91,3.47,2.29.85,3.11,1.16,3.37,1.28.53.25.86.7,1.57,1.7,1.17,1.64,3.6,5,6,5,3.59,0,6.42,1.78,8.49,3.08.65.41,1.26.79,1.79,1.06a31,31,0,0,0,4.5,1.78ZM10.08,207h0Zm79.14-19.08h0Zm-46.37-1.85a1.09,1.09,0,0,0,0,.29S42.82,186.23,42.85,186.05Zm4.91-5.64Z"/><path class="cls-1" d="M96.67,190.83l-2-2.19,4.66-4.35.44-.08a32.44,32.44,0,0,0,5-1.18c.57-.74,1.93-1.22,5.41-2.26.8-.24,1.89-.57,2.14-.68.55-.32,3.42-2.92,5.74-5.14l.11-.09,3.61-2.78,3.36-1.47,4.47-6.59,6.45-2.5,5.17-2.73h12.11l.24.08,3.66,1.27c.28,0,1.14,0,1.78,0,3.4,0,4.83.09,5.54,1,.46.38,2.4,1.48,3.7,2.21a22.19,22.19,0,0,1,3.7,2.28c.6.6,4.89,5.14,6.35,6.69,10.39-.52,11.14,1,11.5,1.68.34.53,2.65,1.94,4.92,3l-1.27,2.72c-1.52-.71-5-2.48-6.15-4.07-1.15-.44-5.75-.51-9.54-.3l-.7,0-.48-.51c-2.1-2.23-6.22-6.58-6.77-7.13-.28-.23-1.88-1.13-3-1.79a27.33,27.33,0,0,1-4.33-2.68,26.87,26.87,0,0,0-3.44-.14,9.5,9.5,0,0,1-2.66-.16l-3.54-1.23H141.94l-4.75,2.49-5.66,2.19L127.1,173l-4,1.74L120,177.17c-2,1.91-5.44,5.11-6.42,5.6a20.55,20.55,0,0,1-2.61.87,38.57,38.57,0,0,0-3.9,1.31c-.39.6-1.57,1.29-6.44,2.14Zm7.8-7.29h0Zm.41-.58Zm59.73-21.66h0Zm-7.34-1.12h0Z"/><path class="cls-1" d="M244.51,171.63c-1.51-1.69-3.84-3.45-4.68-3.28-3.18.64-6.46-2-7.56-3.35-.62-.6-4.34-1.82-5.74-2.28-.73-.24-1.31-.43-1.61-.55-1.25-.5-6-4.81-8.65-7.33l-.19-.18-.12-.24a5.12,5.12,0,0,0-3.37-2.48c-3.93-.6-8.7-4.36-8.9-4.51a40.71,40.71,0,0,0-7.21-3.73c-1.8-.51-5.36-3.93-6.61-5.17L184,135.08l-1.43,1.55-4.51,3.84c-1.77,2.8-3.75,6.11-4.1,7,0,.61-.46,1.55-4.08,4.08L166,159l-5.88,1.8-2.07,1-1.3-2.7,2.39-1.13,4.79-1.46,3.63-7,.31-.21a23.57,23.57,0,0,0,3.17-2.51c.21-.72,1.08-2.48,4.62-8.07l.12-.19,4.78-4.07,2.88-3.16,8.37,5.06c2,2,4.68,4.31,5.45,4.54a40.94,40.94,0,0,1,8.25,4.26c1.2.95,4.88,3.5,7.5,3.9a8,8,0,0,1,5.44,3.82,90.52,90.52,0,0,0,7.59,6.6c.22.09.74.25,1.38.46,4.09,1.33,6.32,2.2,7.16,3.25s3.06,2.59,4.63,2.28c3-.6,6.49,3.08,7.51,4.22ZM174,147.51Z"/><path class="cls-1" d="M217.77,155.18l-1-2.84,1.05-.36c1.61-1.59,7.09-6.9,9.52-7.63,2.23-.67,4.78-2.42,5.06-3.09.17-1.07,1.63-3.48,4.25-7.53.41-.63.71-1.1.8-1.26.36-.75,1.09-.91,2.11-1.13,2-.44,4.14-1.05,4.57-2.78l.35-1.41,1.42.31c5.44,1.19,8.54,2.48,9.22,3.84s2.72,6.93,3.4,8.78l5.89,3.4,2.76,3.77L264.8,149l-2.39-3.26-6.29-3.63-.19-.51c-1.08-3-2.84-7.69-3.4-8.88a23.54,23.54,0,0,0-6-2.07c-1.44,2.53-4.63,3.23-6.28,3.6l-.39.08-.65,1c-.89,1.38-3.6,5.57-3.83,6.49-.43,2.6-5.38,4.86-7.14,5.38-1.22.37-5.37,4-8.51,7.12l-.25.25Zm34.81-22.4Z"/><path class="cls-1" d="M203.53,205.81l-1.82-2.39c3.37-2.56,14.5-11,16.44-11.69a22.28,22.28,0,0,1,2.47-.66c1.38-.32,4.6-1.07,5.06-1.77l.29-1.45c.87-4.31,1.38-6.11,2.88-6.48s11.74-3.9,13.29-5.28a30.85,30.85,0,0,1,2.29-4.55c.53-.94,1.08-1.92,1.49-2.74,1.18-2.35,4.45-4.67,6-5.78l.52-.37c.51-.38,3.24-3.27,5.6-5.85,3.1-4.17,8.14-11.45,8.6-13.44.69-3,3.75-3.13,5.39-3.21a10.56,10.56,0,0,0,1.08-.08c1.24-1.53,6.24-5.74,8.74-7.81l5-12.76,3.9-2.58,2.2-5.49,5.92,1.62,8.16-3.73.49.1c9.22,2,9.95,3,10.26,3.38,4.24,5.66,11.52,14.17,13.28,14.65,2.1.17,3.92,3.42,7.84,11.36,1.51,3.05,3.79,7.67,4.67,8.28l.29.15c5.56,3,9.48,5.45,10.59,7.45s5.71,8.34,8.12,9.74a35,35,0,0,1,8.56,6.38c6,6.58,11.49,11.83,12.79,12.2,1.53.31,3.06,1.71,4.68,3.19a14.5,14.5,0,0,0,2.55,2.05c2.25-.37,4.59,1.4,4.86,1.6l-1.84,2.37a4.36,4.36,0,0,0-2.56-1c-1.61.34-3.13-1-5-2.8-1.07-1-2.53-2.32-3.26-2.46-2.51-.5-9.22-7.41-14.41-13.12a32.43,32.43,0,0,0-7.85-5.81c-3.29-1.92-8.14-8.92-9.23-10.88-.61-1.09-3.77-3.2-9.41-6.27l-.31-.17c-1.44-.79-2.9-3.52-5.89-9.56-1.67-3.37-4.44-9-5.62-9.73-3.62-.63-13-12.84-15.12-15.67a51.66,51.66,0,0,0-8.11-2.27l-8.24,3.77L294.8,115l-1.55,3.88-3.9,2.58-5,12.59-.3.25a109.47,109.47,0,0,0-8.59,7.59c-.67,1.11-2,1.17-3.3,1.23-1.9.09-2.46.28-2.6.89-.74,3.19-7.76,12.73-9.16,14.61l-.09.11c-1.18,1.29-5.09,5.56-6.07,6.29l-.58.42c-1.27.9-4.23,3-5.07,4.68-.44.89-1,1.9-1.56,2.87a28,28,0,0,0-2.09,4.14c-.75,2.61-12.57,6.3-15,7a28.57,28.57,0,0,0-1.08,4.29c-.13.62-.24,1.19-.35,1.63-.55,2.35-4.12,3.18-7.27,3.91-.86.2-1.68.39-2.1.55C218.07,195,210.35,200.63,203.53,205.81Zm187.74-17.55Zm-161.61-4-.07,0ZM330.6,130.37Zm-15-15.6Z"/><path class="cls-1" d="M440.51,174.8h-3c0-1,0-.81,0-1.2.08-2.38.15-4.67-2.42-6.31a33.79,33.79,0,0,1-5.4-4l-.18-.22c-.86-1.25-8.41-12.33-9.47-16.16-.62-2.25-2.1-3.09-5.43-3.12-3.09,0-8.94-4.36-10.08-5.23l-.23-.17-.15-.25a59.34,59.34,0,0,0-6.72-5l-1.87,1.62-.71-.14a11.45,11.45,0,0,0-3.56-.23c-1.14.85-5.25,3.32-6.26,3.83-.23.12-1.14.75-1.87,1.27-3.7,2.59-4.84,3.3-5.86,3.09-1,0-6.72.88-12,1.77a16.25,16.25,0,0,0-1.75,3.14c-.13.65-.37,1.87-10.38,7.13L351.79,152c3.7-1.94,8-4.48,8.91-5.36a21.9,21.9,0,0,1,2.5-4.48l.36-.52.62-.11c9.56-1.62,12.33-1.92,13.31-1.9a41.06,41.06,0,0,0,3.94-2.57,24.28,24.28,0,0,1,2.25-1.49c.83-.42,5-2.92,5.85-3.58,1.08-.83,3.28-.72,5.16-.41l2.51-2.17.95.63c2.67,1.77,7.1,4.81,8.35,6.26,2.53,1.9,6.63,4.49,8.14,4.51,1.87,0,6.83.06,8.29,5.32.78,2.8,6.65,11.74,9,15.13a36.49,36.49,0,0,0,4.81,3.49c4,2.55,3.89,6.45,3.81,9C440.52,174,440.51,174.8,440.51,174.8Zm-63.41-32h0Zm14.17-8.38Z"/><path class="cls-1" d="M352,156l-1.1-.94a59.84,59.84,0,0,0-8.43-5.25l-.31-.17c-1.44-.79-2.9-3.52-5.89-9.56-1.67-3.37-4.44-9-5.62-9.73-3.62-.63-13-12.84-15.12-15.67a51.66,51.66,0,0,0-8.11-2.27l-8.24,3.77L294.8,115l-1.55,3.88-3.9,2.58-5,12.59-.3.25a109.47,109.47,0,0,0-8.59,7.59c-.67,1.11-2,1.17-3.3,1.23-1.9.09-2.46.28-2.6.89s-.59,1.91-2.6,5.12l-1.29,2.05-3.34-5.46-6.24-3.6-.19-.51c0-.05-1.89-5.18-2.94-7.78l-.16-.39.07-.41a83.35,83.35,0,0,1,165.51,9.36l.09,1.88-1.85-.33a12.32,12.32,0,0,0-2-.16c-3.09,0-8.94-4.36-10.08-5.23l-.23-.17-.15-.25a59.57,59.57,0,0,0-6.72-5l-1.88,1.62-.71-.14a11.45,11.45,0,0,0-3.56-.23c-1.14.85-5.25,3.32-6.26,3.83-.23.12-1.14.75-1.87,1.27-3.7,2.59-4.84,3.3-5.86,3.09-1,0-6.72.88-12,1.77a16.25,16.25,0,0,0-1.75,3.14c-.13.65-.37,1.85-10.15,7ZM307.09,109.3l.49.1c9.22,2,9.95,3,10.26,3.38,4.24,5.66,11.52,14.17,13.28,14.65,2.1.17,3.92,3.42,7.84,11.36,1.51,3.05,3.79,7.67,4.67,8.28l.28.15a74.4,74.4,0,0,1,7.87,4.75h0c3.7-1.94,8-4.48,8.91-5.36a21.9,21.9,0,0,1,2.5-4.48l.36-.52.62-.11c9.56-1.62,12.31-1.92,13.31-1.9a41.06,41.06,0,0,0,3.94-2.57,24.28,24.28,0,0,1,2.25-1.49c.83-.42,5-2.92,5.85-3.58,1.08-.83,3.28-.72,5.16-.41l2.51-2.17.95.63c2.67,1.77,7.1,4.81,8.35,6.26,2.53,1.9,6.63,4.49,8.14,4.51l.67,0a80.36,80.36,0,0,0-159.39-7.69c.88,2.22,2.15,5.67,2.63,7l6,3.43,1.18,1.93a9.37,9.37,0,0,0,1-2.1c.69-3,3.75-3.13,5.39-3.21a10.56,10.56,0,0,0,1.08-.08c1.24-1.53,6.24-5.74,8.74-7.81l5-12.76,3.9-2.58,2.2-5.49,5.92,1.62Zm53.7,37.21Zm16.3-3.72h0Zm.31-3.15Zm13.86-5.23ZM330.8,130.8h0Z"/><path class="cls-1" d="M27.07,240.14l-2.27-2,4.05-4.71v-4.35l10-3.32,0-2.41c2-8.54,2.84-9,3.38-9.29l.09-.05A34.44,34.44,0,0,0,44,209.26l.2-.73.71-.27a99.15,99.15,0,0,0,9.62-4.13c-.44-1.55-1.19-4.28-1.22-4.42l-.09-.33,1.68-9.49-1.4-3.43,1.7-7.62,2.29-.76L56.69,175l-1.28-5.2,2.91-.72,1.27,5.17,1.52,5.77-3.35,1.11-1.12,5L58,189.57l-1.72,9.67c.29,1,1.17,4.27,1.38,4.94.4,1.33.65,2.14-11,6.62-1.51,5.18-2.31,5.66-2.76,5.9a61.11,61.11,0,0,0-2.08,7.22v4l-10,3.32v3.3Zm15.54-23.32h0Zm.79-2.89.16,0Z"/><path class="cls-1" d="M129,209.63l-3-.09c0-.19,0-.77,1.87-8.62v-4.3l6.54-5.36.72.17a2.08,2.08,0,0,0,1.47-.18,1.72,1.72,0,0,0,.22-1.36l-.08-.66c-.41-3.59-.54-4.67.49-6.83a16.48,16.48,0,0,1,3.21-3.68,23.6,23.6,0,0,0,2.77-3c-.17-.38-.45-1-.73-1.5-1.47-2.94-2.4-5-1.92-6.42.32-.95.83-3.75,1.07-5.19l-.77-1.73,2.74-1.22,1.14,2.55-.07.44c-.08.46-.75,4.49-1.24,6,0,.74,1.16,3.07,1.73,4.2a20,20,0,0,1,1,2.18c.57,1.71-1.19,3.42-3.64,5.8a18.77,18.77,0,0,0-2.6,2.82c-.64,1.34-.62,1.7-.22,5.2l.08.66a4.29,4.29,0,0,1-1.2,3.94,4.53,4.53,0,0,1-3.36,1l-4.37,3.58,0,3.4C130,205,129,209.08,129,209.63Z"/><path class="cls-1" d="M179.64,174.71c-2.29-2.33,1.52-8.79,1.56-8.85a10.45,10.45,0,0,0-1-4.78c-1.09-1.89-1.31-6.82-1.31-7.78V153l2.27-4.47a20.72,20.72,0,0,0,1.51-2.56,15.29,15.29,0,0,0-1-3.85c-.35-.37-1.08-1.15-.33-8.1l3,.32a32.19,32.19,0,0,0-.21,6c1,1.42,1.6,5.12,1.6,5.73,0,.31,0,1.13-1.85,4l-1.66,3.59c0,2.35.29,5.19.73,6,1,1.79,1.84,6.21.8,7.87-.81,1.29-2.07,4.54-1.84,5.34a.49.49,0,0,0-.12-.18Z"/><path class="cls-1" d="M234.81,164.68l-2.74-1.22,3-6.68,2.91-2.18,3.44-5.4,5.26-1.57,1.76-6.1c-3.57-3.69-3.57-4.93-3.57-5.35a10.91,10.91,0,0,1,.62-3l-1.25-3.75,2.85-.95,1.57,4.74-.19.5a10.16,10.16,0,0,0-.6,2.38,21.5,21.5,0,0,0,3.31,4l.63.63-2.7,9.37-5.76,1.71-3.13,4.91-2.72,2Z"/><path class="cls-1" d="M252,202.57c-.3-.81-1.1-2.94,9.22-10,.82-1.26,3.93-6,4.58-6.86,1.06-1.41,3.06-1.06,4.19-.71,9.38-4,12-5,12.93-5.2a26.1,26.1,0,0,0,3.81-4.67,91.68,91.68,0,0,0,0-9.57c-.23-1.08.46-1.83,3.78-5.15a36.86,36.86,0,0,0,3-3.25,8.38,8.38,0,0,0-.57-2,11.2,11.2,0,0,1-.48-1.54c-.39-2,2-3.71,3-4.37l.31-.15,5.08-1.77c3.35-3.26,7-6.86,8.17-8.11a24.23,24.23,0,0,0-3.08-4l-.65-.71.38-.89c.24-.56.88-2.08,1.1-2.68a6.83,6.83,0,0,0-.73-2.29c-.48-.72-3.42-5.47-3.54-5.67l-.36-.58,3.72-11.9,2.86.89-3.31,10.59c1.11,1.78,2.8,4.52,3.13,5,.44.66,1.6,3.35,1.11,4.82-.15.46-.54,1.41-.84,2.12,4.33,4.92,3.45,6.1,3,6.74-.74,1-7.68,7.74-9.06,9.08l-.24.23-5.53,1.92a6.28,6.28,0,0,0-1.49,1.35c.07.26.19.6.31.93.48,1.34,1,2.86.5,4.19-.31.77-1.3,1.81-3.68,4.19-1,1-2.41,2.41-2.9,3,.14,2.19.29,9.32-.1,10.5-.25.74-4.25,6.65-6.19,6.65a1.11,1.11,0,0,0,.24,0c-.9.21-8.15,3.22-13,5.29l-.57.24-.57-.23a4.48,4.48,0,0,0-1.42-.31c-.79,1.11-3.47,5.19-4.5,6.77l-.16.25-.25.17c-4.18,2.86-8,6.12-8.3,7.12a.77.77,0,0,0,0-.45Zm30.85-22.75Zm.36-.12h0Zm6.43-14.76s0,.13,0,.24A1.42,1.42,0,0,0,289.59,164.93Zm17.15-34Zm.11-.13h0Z"/><path class="cls-1" d="M371.24,172.75l-2.34-1.87,1.8-2.25a35.86,35.86,0,0,0,2.8-5.79c0-1.66,2.66-6.48,3.4-7.35s8.57-6.12,11-6.87a5.34,5.34,0,0,0-.6-1.36,2.52,2.52,0,0,1-.25-2c.48-1.63,2.42-2.74,4.72-3.92l.69-.36c1-.55,1.38-1.35,1.35-1.57-.42-.83-.47-3-.13-6.37l3,.3a23.22,23.22,0,0,0-.12,4.87c.86,1.7-.32,4.17-2.67,5.43l-.74.38a13.62,13.62,0,0,0-3.13,2c.94,1.69,1.16,3.08.66,4.13a2.56,2.56,0,0,1-2,1.41c-1.3.33-8.63,5.09-9.5,6a23.64,23.64,0,0,0-2.66,5.48c0,1.26-1.76,4.65-3.24,7.26l-.13.2Z"/><rect class="cls-1" x="281.92" y="12.46" width="2" height="64.86" transform="translate(14.55 145.08) rotate(-29.49)"/><rect class="cls-1" x="313.64" y="29.13" width="2" height="37.62" transform="translate(-2.98 68.34) rotate(-12.34)"/><rect class="cls-1" x="303.1" y="31.33" width="64.64" height="2" transform="translate(300.63 367.5) rotate(-89.58)"/><rect class="cls-1" x="339.84" y="49.49" width="32.88" height="2" transform="translate(225.01 385.53) rotate(-76.67)"/><rect class="cls-1" x="353.46" y="42.72" width="66.05" height="2" transform="translate(183.3 375.38) rotate(-64.96)"/><rect class="cls-1" x="386.2" y="74.46" width="30.98" height="2" transform="translate(61.38 301.81) rotate(-44.27)"/><rect class="cls-1" x="402.57" y="90.4" width="64.5" height="2" transform="translate(-1.25 176.66) rotate(-22.93)"/><rect class="cls-1" x="414.74" y="125.06" width="27.2" height="2" transform="translate(-11.52 49.33) rotate(-6.5)"/><rect class="cls-1" x="270.9" y="54.64" width="2" height="35.2" transform="translate(50.27 245.54) rotate(-52.9)"/></g></svg>